<svg xmlns="http://www.w3.org/2000/svg" xmlns:xlink="http://www.w3.org/1999/xlink" version="1.1" x="0px" y="0px" viewBox="0, 0, 100, 100"><g transform="translate(0, 0)"><path d="M93.265,75 C84.713,90.744 67.494,99.558 50,100 C32.573,99.828 15.191,90.567 6.735,75 L93.265,75 z" fill="#000000"></path><path d="M52.573,0.065 C79.297,1.883 99.327,23.392 100,50 C100,77.614 77.614,100 50,100 C22.386,100 0,77.614 0,50 C0,22.386 22.386,0 50,-0 L52.573,0.065 z M50,4 C24.595,4 4,24.595 4,50 C4,75.405 24.595,96 50,96 C75.405,96 96,75.405 96,50 C96,24.595 75.405,4 50,4 z" fill="#000000"></path><path d="M84.21,46.602 C86.226,47.158 87.796,48.615 89.4,49.884 C91.204,51.121 93.198,53.601 95.67,53.167 C97.26,52.887 98.681,51.726 99.978,50.862 C99.461,78.601 77.275,99.31 50,100 C22.941,99.639 2.833,79.88 0.146,53.369 C3.193,51.62 7.248,47.566 10.97,47.559 C13.313,47.555 15.386,49.349 17.2,50.601 C23.6,55.047 23.6,55.047 28.6,51.032 C33.6,47.016 33.6,46.873 39.6,50.745 C45.6,54.617 45.6,54.617 50.8,50.171 C56,45.725 56,45.725 62.8,50.028 C69.6,54.33 69.8,54.33 76.8,49.884 C78.816,48.801 80.686,46.989 83.023,46.602 C83.413,46.537 83.815,46.602 84.21,46.602 z" fill="#000000"></path></g></svg>